# xmcd
#
# Track frame offsets:
#	150
#	17511
#	34419
#	53341
#	71744
#	90034
#	111043
#	128322
#	146610
#	172885
#	196770
#
# Disc length: 2911 seconds
#
# Revision: 1
# Processed by: cddbd v1.5.2PL0 Copyright (c) Steve Scherf et al.
# Submitted via: audiograbber 1.83.01
#
DISCID=7b0b5d0b
DTITLE=Adele - Adele 21
DYEAR=2011
DGENRE=Blues
TTITLE0=Rolling in the deep
TTITLE1=Rumour has it
TTITLE2=Turning tables
TTITLE3=Don't you remember
TTITLE4=Set fire to the rain
TTITLE5=He wont go
TTITLE6=Take it all
TTITLE7=I'll be waiting
TTITLE8=One and only
TTITLE9=Lovesong
TTITLE10=Someone like you
EXTD=
EXTT0=
EXTT1=
EXTT2=
EXTT3=
EXTT4=
EXTT5=
EXTT6=
EXTT7=
EXTT8=
EXTT9=
EXTT10=
PLAYORDER=
